<svg width="132" height="118" viewBox="0 0 132 118" fill="none" xmlns="http://www.w3.org/2000/svg">
    <path d="M15.633 87.9142L15.633 24.9034L54.0597 25.4066L54.0597 33.1479L24.1822 32.7567L24.1822 51.2098L47.2202 51.5115L47.2202 59.2528L24.1822 58.9512L24.1822 88.0261L15.633 87.9142Z" fill="#697FD1"/>
    <path d="M32.0006 88.1285L32.0006 70.4855L35.2403 70.5279L35.2403 88.1709L32.0006 88.1285ZM32.0006 66.5248L32.0006 62.9242L35.2403 62.9666L35.2403 66.5672L32.0006 66.5248ZM39.8728 88.2316L39.8728 68.6282L42.6726 68.6649L43.3925 72.435L41.9926 71.8165C43.3125 70.3669 44.5991 69.4236 45.8523 68.9866C47.1189 68.5498 48.3521 68.3392 49.552 68.3549C52.4184 68.3925 54.4649 69.2461 55.6915 70.9157C56.9314 72.5856 57.5513 74.8341 57.5513 77.6612L57.5513 88.4631L53.9516 88.416L53.9516 77.6141C53.9516 75.5337 53.565 74.0084 52.7917 73.0381C52.0184 72.0678 50.6986 71.5705 48.8321 71.546C47.5122 71.5288 46.2989 71.8063 45.1924 72.3785C44.0991 72.9376 43.3792 73.8484 43.0325 75.1107L43.4725 72.9161L43.4725 88.2787L39.8728 88.2316ZM66.7743 88.9839C65.561 88.968 64.5011 88.7074 63.5945 88.2022C62.6879 87.6969 61.9813 87.0142 61.4747 86.1541C60.9814 85.2941 60.7348 84.3174 60.7348 83.2239C60.7348 82.117 60.9748 81.1733 61.4547 80.3928C61.948 79.5991 62.6013 78.9476 63.4146 78.4381C64.2412 77.9155 65.1611 77.5075 66.1743 77.2141C67.1876 76.9073 68.2341 76.6943 69.314 76.575C70.4073 76.4427 71.4539 76.3764 72.4538 76.3761C72.4538 74.5091 72.0871 73.2841 71.3539 72.7011C70.6206 72.1181 69.5607 71.8175 68.1741 71.7993C67.4409 71.7897 66.6543 71.8928 65.8143 72.1085C64.9878 72.3243 64.0545 72.7855 63.0146 73.492L62.4946 70.5647C63.2812 69.9749 64.2611 69.501 65.4344 69.143C66.6076 68.7716 67.8408 68.5944 69.1341 68.6113C70.7873 68.633 72.1205 68.9438 73.1337 69.5438C74.147 70.1305 74.8869 71.1137 75.3535 72.4934C75.8202 73.8731 76.0535 75.7431 76.0535 78.1035L76.0535 82.1042C76.0535 83.0377 76.0935 83.8117 76.1735 84.4262C76.2668 85.0275 76.4668 85.4835 76.7734 85.7943C77.0934 86.0919 77.6 86.2452 78.2933 86.2543L78.6533 86.259L78.0933 89.1321L77.8133 89.1285C76.6534 89.1133 75.7535 88.9881 75.1136 88.7531C74.4869 88.5181 74.007 88.1851 73.6737 87.754C73.3404 87.3229 73.0404 86.7989 72.7738 86.182C72.0405 87.0259 71.1739 87.708 70.174 88.2283C69.1741 88.7486 68.0408 89.0005 66.7743 88.9839ZM67.4542 86.1123C68.4141 86.1249 69.3407 85.897 70.234 85.4286C71.1406 84.9604 71.8805 84.33 72.4538 83.5373L72.4538 78.8565C70.5473 78.8983 69.0007 79.0647 67.8142 79.3559C66.6409 79.6472 65.781 80.0961 65.2344 80.7023C64.6878 81.3086 64.4145 82.0985 64.4145 83.072C64.4145 84.1255 64.6944 84.896 65.2544 85.3834C65.8277 85.8577 66.561 86.1006 67.4542 86.1123ZM81.4318 88.7758L81.4318 69.1724L84.2315 69.2091L84.9515 72.9792L83.5516 72.3607C84.8715 70.9111 86.158 69.9678 87.4113 69.5308C88.6778 69.0939 89.911 68.8834 91.1109 68.8991C93.9774 68.9366 96.0238 69.7902 97.2504 71.4599C98.4903 73.1298 99.1102 75.3783 99.1102 78.2054L99.1102 89.0073L95.5106 88.9601L95.5106 78.1583C95.5106 76.0779 95.1239 74.5526 94.3507 73.5823C93.5774 72.612 92.2575 72.1147 90.391 72.0902C89.0711 72.0729 87.8579 72.3504 86.7513 72.9227C85.6581 73.4818 84.9381 74.3926 84.5915 75.6549L85.0315 73.4603L85.0315 88.8229L81.4318 88.7758ZM102.214 89.0479L114.333 70.9635L114.773 72.7695L102.854 72.6135L102.854 69.4529L119.172 69.6666L107.053 87.751L106.613 85.945L118.972 86.1068L118.972 89.2673L102.214 89.0479Z" fill="#697FD1"/>
</svg>
